<svg width="48" height="49" viewBox="0 0 48 49" fill="none" xmlns="http://www.w3.org/2000/svg">
<path d="M0 12H6V43H41.8494V12H48V49H0V12Z" fill="#636363"/>
<path d="M25.4142 0.585787C24.6332 -0.195262 23.3668 -0.195262 22.5858 0.585786L9.85787 13.3137C9.07682 14.0948 9.07682 15.3611 9.85787 16.1421C10.6389 16.9232 11.9052 16.9232 12.6863 16.1421L24 4.82843L35.3137 16.1421C36.0948 16.9232 37.3611 16.9232 38.1421 16.1421C38.9232 15.3611 38.9232 14.0948 38.1421 13.3137L25.4142 0.585787ZM26 40L26 2L22 2L22 40L26 40Z" fill="#636363"/>
</svg>
